<mxfile host="app.diagrams.net" agent="Mozilla/5.0 (Windows NT 10.0; Win64; x64; rv:130.0) Gecko/20100101 Firefox/130.0" version="24.7.16">
  <diagram id="C5RBs43oDa-KdzZeNtuy" name="Page-1">
    <mxGraphModel dx="867" dy="2257" grid="1" gridSize="10" guides="1" tooltips="1" connect="1" arrows="1" fold="1" page="1" pageScale="1" pageWidth="827" pageHeight="1169" math="0" shadow="0">
      <root>
        <mxCell id="WIyWlLk6GJQsqaUBKTNV-0" />
        <mxCell id="WIyWlLk6GJQsqaUBKTNV-1" parent="WIyWlLk6GJQsqaUBKTNV-0" />
        <mxCell id="WIyWlLk6GJQsqaUBKTNV-2" value="false" style="rounded=0;html=1;jettySize=auto;orthogonalLoop=1;fontSize=11;endArrow=block;endFill=0;endSize=8;strokeWidth=1;shadow=0;labelBackgroundColor=none;edgeStyle=orthogonalEdgeStyle;" parent="WIyWlLk6GJQsqaUBKTNV-1" source="WIyWlLk6GJQsqaUBKTNV-3" target="WIyWlLk6GJQsqaUBKTNV-6" edge="1">
          <mxGeometry relative="1" as="geometry" />
        </mxCell>
        <mxCell id="WIyWlLk6GJQsqaUBKTNV-3" value="ask user for imput" style="rounded=1;whiteSpace=wrap;html=1;fontSize=12;glass=0;strokeWidth=1;shadow=0;" parent="WIyWlLk6GJQsqaUBKTNV-1" vertex="1">
          <mxGeometry x="40" y="-10" width="120" height="40" as="geometry" />
        </mxCell>
        <mxCell id="qDLXqYuhVgCByGNDHQGn-10" value="false" style="edgeStyle=orthogonalEdgeStyle;rounded=0;orthogonalLoop=1;jettySize=auto;html=1;exitX=0.5;exitY=1;exitDx=0;exitDy=0;entryX=0.5;entryY=0;entryDx=0;entryDy=0;" edge="1" parent="WIyWlLk6GJQsqaUBKTNV-1" source="WIyWlLk6GJQsqaUBKTNV-6" target="qDLXqYuhVgCByGNDHQGn-0">
          <mxGeometry relative="1" as="geometry" />
        </mxCell>
        <mxCell id="WIyWlLk6GJQsqaUBKTNV-6" value="read imput" style="rhombus;whiteSpace=wrap;html=1;shadow=0;fontFamily=Helvetica;fontSize=12;align=center;strokeWidth=1;spacing=6;spacingTop=-4;" parent="WIyWlLk6GJQsqaUBKTNV-1" vertex="1">
          <mxGeometry x="50" y="80" width="100" height="80" as="geometry" />
        </mxCell>
        <mxCell id="qDLXqYuhVgCByGNDHQGn-11" value="false" style="edgeStyle=orthogonalEdgeStyle;rounded=0;orthogonalLoop=1;jettySize=auto;html=1;exitX=0.5;exitY=1;exitDx=0;exitDy=0;entryX=0.5;entryY=0;entryDx=0;entryDy=0;" edge="1" parent="WIyWlLk6GJQsqaUBKTNV-1" source="qDLXqYuhVgCByGNDHQGn-0" target="qDLXqYuhVgCByGNDHQGn-1">
          <mxGeometry relative="1" as="geometry" />
        </mxCell>
        <mxCell id="qDLXqYuhVgCByGNDHQGn-28" value="&lt;div&gt;true&lt;/div&gt;" style="edgeStyle=orthogonalEdgeStyle;rounded=0;orthogonalLoop=1;jettySize=auto;html=1;exitX=1;exitY=0.5;exitDx=0;exitDy=0;entryX=0;entryY=0.5;entryDx=0;entryDy=0;" edge="1" parent="WIyWlLk6GJQsqaUBKTNV-1" source="qDLXqYuhVgCByGNDHQGn-0" target="qDLXqYuhVgCByGNDHQGn-20">
          <mxGeometry relative="1" as="geometry" />
        </mxCell>
        <mxCell id="qDLXqYuhVgCByGNDHQGn-0" value="if imput is +" style="rhombus;whiteSpace=wrap;html=1;" vertex="1" parent="WIyWlLk6GJQsqaUBKTNV-1">
          <mxGeometry x="60" y="210" width="80" height="80" as="geometry" />
        </mxCell>
        <mxCell id="qDLXqYuhVgCByGNDHQGn-12" value="false" style="edgeStyle=orthogonalEdgeStyle;rounded=0;orthogonalLoop=1;jettySize=auto;html=1;exitX=0.5;exitY=1;exitDx=0;exitDy=0;entryX=0.5;entryY=0;entryDx=0;entryDy=0;" edge="1" parent="WIyWlLk6GJQsqaUBKTNV-1" source="qDLXqYuhVgCByGNDHQGn-1" target="qDLXqYuhVgCByGNDHQGn-2">
          <mxGeometry relative="1" as="geometry" />
        </mxCell>
        <mxCell id="qDLXqYuhVgCByGNDHQGn-29" value="true" style="edgeStyle=orthogonalEdgeStyle;rounded=0;orthogonalLoop=1;jettySize=auto;html=1;exitX=1;exitY=0.5;exitDx=0;exitDy=0;entryX=0;entryY=0.5;entryDx=0;entryDy=0;" edge="1" parent="WIyWlLk6GJQsqaUBKTNV-1" source="qDLXqYuhVgCByGNDHQGn-1" target="qDLXqYuhVgCByGNDHQGn-21">
          <mxGeometry relative="1" as="geometry" />
        </mxCell>
        <mxCell id="qDLXqYuhVgCByGNDHQGn-1" value="if imput is -" style="rhombus;whiteSpace=wrap;html=1;" vertex="1" parent="WIyWlLk6GJQsqaUBKTNV-1">
          <mxGeometry x="60" y="330" width="80" height="80" as="geometry" />
        </mxCell>
        <mxCell id="qDLXqYuhVgCByGNDHQGn-13" value="false" style="edgeStyle=orthogonalEdgeStyle;rounded=0;orthogonalLoop=1;jettySize=auto;html=1;exitX=0.5;exitY=1;exitDx=0;exitDy=0;entryX=0.5;entryY=0;entryDx=0;entryDy=0;" edge="1" parent="WIyWlLk6GJQsqaUBKTNV-1" source="qDLXqYuhVgCByGNDHQGn-2" target="qDLXqYuhVgCByGNDHQGn-3">
          <mxGeometry relative="1" as="geometry" />
        </mxCell>
        <mxCell id="qDLXqYuhVgCByGNDHQGn-30" value="true" style="edgeStyle=orthogonalEdgeStyle;rounded=0;orthogonalLoop=1;jettySize=auto;html=1;exitX=1;exitY=0.5;exitDx=0;exitDy=0;entryX=0;entryY=0.5;entryDx=0;entryDy=0;" edge="1" parent="WIyWlLk6GJQsqaUBKTNV-1" source="qDLXqYuhVgCByGNDHQGn-2" target="qDLXqYuhVgCByGNDHQGn-22">
          <mxGeometry relative="1" as="geometry" />
        </mxCell>
        <mxCell id="qDLXqYuhVgCByGNDHQGn-2" value="if imput is *" style="rhombus;whiteSpace=wrap;html=1;" vertex="1" parent="WIyWlLk6GJQsqaUBKTNV-1">
          <mxGeometry x="60" y="450" width="80" height="80" as="geometry" />
        </mxCell>
        <mxCell id="qDLXqYuhVgCByGNDHQGn-14" style="edgeStyle=orthogonalEdgeStyle;rounded=0;orthogonalLoop=1;jettySize=auto;html=1;exitX=0.5;exitY=1;exitDx=0;exitDy=0;entryX=0.5;entryY=0;entryDx=0;entryDy=0;" edge="1" parent="WIyWlLk6GJQsqaUBKTNV-1" source="qDLXqYuhVgCByGNDHQGn-3" target="qDLXqYuhVgCByGNDHQGn-9">
          <mxGeometry relative="1" as="geometry" />
        </mxCell>
        <mxCell id="qDLXqYuhVgCByGNDHQGn-42" value="false" style="edgeStyle=orthogonalEdgeStyle;rounded=0;orthogonalLoop=1;jettySize=auto;html=1;" edge="1" parent="WIyWlLk6GJQsqaUBKTNV-1" source="qDLXqYuhVgCByGNDHQGn-3" target="qDLXqYuhVgCByGNDHQGn-9">
          <mxGeometry relative="1" as="geometry" />
        </mxCell>
        <mxCell id="qDLXqYuhVgCByGNDHQGn-3" value="if imput is /" style="rhombus;whiteSpace=wrap;html=1;" vertex="1" parent="WIyWlLk6GJQsqaUBKTNV-1">
          <mxGeometry x="60" y="560" width="80" height="80" as="geometry" />
        </mxCell>
        <mxCell id="qDLXqYuhVgCByGNDHQGn-16" value="false" style="edgeStyle=orthogonalEdgeStyle;rounded=0;orthogonalLoop=1;jettySize=auto;html=1;exitX=0.5;exitY=1;exitDx=0;exitDy=0;entryX=0.5;entryY=0;entryDx=0;entryDy=0;" edge="1" parent="WIyWlLk6GJQsqaUBKTNV-1" source="qDLXqYuhVgCByGNDHQGn-5" target="qDLXqYuhVgCByGNDHQGn-7">
          <mxGeometry relative="1" as="geometry" />
        </mxCell>
        <mxCell id="qDLXqYuhVgCByGNDHQGn-33" value="true" style="edgeStyle=orthogonalEdgeStyle;rounded=0;orthogonalLoop=1;jettySize=auto;html=1;exitX=1;exitY=0.5;exitDx=0;exitDy=0;" edge="1" parent="WIyWlLk6GJQsqaUBKTNV-1" source="qDLXqYuhVgCByGNDHQGn-5">
          <mxGeometry relative="1" as="geometry">
            <mxPoint x="170" y="849.6956521739135" as="targetPoint" />
          </mxGeometry>
        </mxCell>
        <mxCell id="qDLXqYuhVgCByGNDHQGn-5" value="if imput is &amp;gt;" style="rhombus;whiteSpace=wrap;html=1;" vertex="1" parent="WIyWlLk6GJQsqaUBKTNV-1">
          <mxGeometry x="60" y="810" width="80" height="80" as="geometry" />
        </mxCell>
        <mxCell id="qDLXqYuhVgCByGNDHQGn-17" value="false" style="edgeStyle=orthogonalEdgeStyle;rounded=0;orthogonalLoop=1;jettySize=auto;html=1;exitX=0.5;exitY=1;exitDx=0;exitDy=0;entryX=0.5;entryY=0;entryDx=0;entryDy=0;" edge="1" parent="WIyWlLk6GJQsqaUBKTNV-1" source="qDLXqYuhVgCByGNDHQGn-7" target="qDLXqYuhVgCByGNDHQGn-8">
          <mxGeometry relative="1" as="geometry" />
        </mxCell>
        <mxCell id="qDLXqYuhVgCByGNDHQGn-34" value="true" style="edgeStyle=orthogonalEdgeStyle;rounded=0;orthogonalLoop=1;jettySize=auto;html=1;exitX=1;exitY=0.5;exitDx=0;exitDy=0;entryX=0;entryY=0.5;entryDx=0;entryDy=0;" edge="1" parent="WIyWlLk6GJQsqaUBKTNV-1" source="qDLXqYuhVgCByGNDHQGn-7" target="qDLXqYuhVgCByGNDHQGn-26">
          <mxGeometry relative="1" as="geometry" />
        </mxCell>
        <mxCell id="qDLXqYuhVgCByGNDHQGn-7" value="if imput is&amp;lt;" style="rhombus;whiteSpace=wrap;html=1;" vertex="1" parent="WIyWlLk6GJQsqaUBKTNV-1">
          <mxGeometry x="60" y="940" width="80" height="80" as="geometry" />
        </mxCell>
        <mxCell id="qDLXqYuhVgCByGNDHQGn-18" style="edgeStyle=orthogonalEdgeStyle;rounded=0;orthogonalLoop=1;jettySize=auto;html=1;exitX=1;exitY=0.5;exitDx=0;exitDy=0;" edge="1" parent="WIyWlLk6GJQsqaUBKTNV-1" source="qDLXqYuhVgCByGNDHQGn-8">
          <mxGeometry relative="1" as="geometry">
            <mxPoint x="200" y="1101" as="targetPoint" />
          </mxGeometry>
        </mxCell>
        <mxCell id="qDLXqYuhVgCByGNDHQGn-35" value="true" style="edgeStyle=orthogonalEdgeStyle;rounded=0;orthogonalLoop=1;jettySize=auto;html=1;" edge="1" parent="WIyWlLk6GJQsqaUBKTNV-1" source="qDLXqYuhVgCByGNDHQGn-8" target="qDLXqYuhVgCByGNDHQGn-27">
          <mxGeometry relative="1" as="geometry" />
        </mxCell>
        <mxCell id="qDLXqYuhVgCByGNDHQGn-38" value="false" style="edgeStyle=orthogonalEdgeStyle;rounded=0;orthogonalLoop=1;jettySize=auto;html=1;exitX=0.5;exitY=1;exitDx=0;exitDy=0;entryX=0.5;entryY=0;entryDx=0;entryDy=0;" edge="1" parent="WIyWlLk6GJQsqaUBKTNV-1" source="qDLXqYuhVgCByGNDHQGn-8" target="qDLXqYuhVgCByGNDHQGn-36">
          <mxGeometry relative="1" as="geometry" />
        </mxCell>
        <mxCell id="qDLXqYuhVgCByGNDHQGn-8" value="if imput is !" style="rhombus;whiteSpace=wrap;html=1;" vertex="1" parent="WIyWlLk6GJQsqaUBKTNV-1">
          <mxGeometry x="60" y="1060" width="80" height="80" as="geometry" />
        </mxCell>
        <mxCell id="qDLXqYuhVgCByGNDHQGn-15" value="false" style="edgeStyle=orthogonalEdgeStyle;rounded=0;orthogonalLoop=1;jettySize=auto;html=1;exitX=0.5;exitY=1;exitDx=0;exitDy=0;entryX=0.5;entryY=0;entryDx=0;entryDy=0;" edge="1" parent="WIyWlLk6GJQsqaUBKTNV-1" source="qDLXqYuhVgCByGNDHQGn-9" target="qDLXqYuhVgCByGNDHQGn-5">
          <mxGeometry relative="1" as="geometry" />
        </mxCell>
        <mxCell id="qDLXqYuhVgCByGNDHQGn-9" value="if imput is %" style="rhombus;whiteSpace=wrap;html=1;" vertex="1" parent="WIyWlLk6GJQsqaUBKTNV-1">
          <mxGeometry x="60" y="680" width="80" height="80" as="geometry" />
        </mxCell>
        <mxCell id="qDLXqYuhVgCByGNDHQGn-20" value="print addition" style="rounded=0;whiteSpace=wrap;html=1;" vertex="1" parent="WIyWlLk6GJQsqaUBKTNV-1">
          <mxGeometry x="190" y="220" width="120" height="60" as="geometry" />
        </mxCell>
        <mxCell id="qDLXqYuhVgCByGNDHQGn-21" value="print subtraction" style="rounded=0;whiteSpace=wrap;html=1;" vertex="1" parent="WIyWlLk6GJQsqaUBKTNV-1">
          <mxGeometry x="180" y="340" width="120" height="60" as="geometry" />
        </mxCell>
        <mxCell id="qDLXqYuhVgCByGNDHQGn-22" value="print multiplication" style="rounded=0;whiteSpace=wrap;html=1;" vertex="1" parent="WIyWlLk6GJQsqaUBKTNV-1">
          <mxGeometry x="190" y="460" width="120" height="60" as="geometry" />
        </mxCell>
        <mxCell id="qDLXqYuhVgCByGNDHQGn-23" value="print division" style="rounded=0;whiteSpace=wrap;html=1;" vertex="1" parent="WIyWlLk6GJQsqaUBKTNV-1">
          <mxGeometry x="190" y="560" width="120" height="60" as="geometry" />
        </mxCell>
        <mxCell id="qDLXqYuhVgCByGNDHQGn-24" value="print modulo" style="rounded=0;whiteSpace=wrap;html=1;" vertex="1" parent="WIyWlLk6GJQsqaUBKTNV-1">
          <mxGeometry x="190" y="700" width="120" height="60" as="geometry" />
        </mxCell>
        <mxCell id="qDLXqYuhVgCByGNDHQGn-25" value="print greater than" style="rounded=0;whiteSpace=wrap;html=1;" vertex="1" parent="WIyWlLk6GJQsqaUBKTNV-1">
          <mxGeometry x="180" y="820" width="120" height="60" as="geometry" />
        </mxCell>
        <mxCell id="qDLXqYuhVgCByGNDHQGn-26" value="print less than" style="rounded=0;whiteSpace=wrap;html=1;" vertex="1" parent="WIyWlLk6GJQsqaUBKTNV-1">
          <mxGeometry x="170" y="950" width="120" height="60" as="geometry" />
        </mxCell>
        <mxCell id="qDLXqYuhVgCByGNDHQGn-27" value="print not" style="rounded=0;whiteSpace=wrap;html=1;" vertex="1" parent="WIyWlLk6GJQsqaUBKTNV-1">
          <mxGeometry x="200" y="1070" width="120" height="60" as="geometry" />
        </mxCell>
        <mxCell id="qDLXqYuhVgCByGNDHQGn-31" value="true" style="edgeStyle=orthogonalEdgeStyle;rounded=0;orthogonalLoop=1;jettySize=auto;html=1;exitX=1;exitY=0.5;exitDx=0;exitDy=0;entryX=-0.003;entryY=0.64;entryDx=0;entryDy=0;entryPerimeter=0;" edge="1" parent="WIyWlLk6GJQsqaUBKTNV-1" source="qDLXqYuhVgCByGNDHQGn-3" target="qDLXqYuhVgCByGNDHQGn-23">
          <mxGeometry relative="1" as="geometry" />
        </mxCell>
        <mxCell id="qDLXqYuhVgCByGNDHQGn-32" value="true" style="edgeStyle=orthogonalEdgeStyle;rounded=0;orthogonalLoop=1;jettySize=auto;html=1;exitX=1;exitY=0.5;exitDx=0;exitDy=0;entryX=-0.011;entryY=0.364;entryDx=0;entryDy=0;entryPerimeter=0;" edge="1" parent="WIyWlLk6GJQsqaUBKTNV-1" source="qDLXqYuhVgCByGNDHQGn-9" target="qDLXqYuhVgCByGNDHQGn-24">
          <mxGeometry relative="1" as="geometry" />
        </mxCell>
        <mxCell id="qDLXqYuhVgCByGNDHQGn-40" style="edgeStyle=orthogonalEdgeStyle;rounded=0;orthogonalLoop=1;jettySize=auto;html=1;exitX=1;exitY=0.5;exitDx=0;exitDy=0;" edge="1" parent="WIyWlLk6GJQsqaUBKTNV-1" source="qDLXqYuhVgCByGNDHQGn-36">
          <mxGeometry relative="1" as="geometry">
            <mxPoint x="190" y="1200" as="targetPoint" />
          </mxGeometry>
        </mxCell>
        <mxCell id="qDLXqYuhVgCByGNDHQGn-36" value="default" style="rhombus;whiteSpace=wrap;html=1;" vertex="1" parent="WIyWlLk6GJQsqaUBKTNV-1">
          <mxGeometry x="60" y="1160" width="80" height="80" as="geometry" />
        </mxCell>
        <mxCell id="qDLXqYuhVgCByGNDHQGn-44" style="edgeStyle=orthogonalEdgeStyle;rounded=0;orthogonalLoop=1;jettySize=auto;html=1;exitX=0.5;exitY=1;exitDx=0;exitDy=0;entryX=0.5;entryY=0;entryDx=0;entryDy=0;" edge="1" parent="WIyWlLk6GJQsqaUBKTNV-1" source="qDLXqYuhVgCByGNDHQGn-41" target="qDLXqYuhVgCByGNDHQGn-43">
          <mxGeometry relative="1" as="geometry" />
        </mxCell>
        <mxCell id="qDLXqYuhVgCByGNDHQGn-41" value="print unknown" style="rounded=0;whiteSpace=wrap;html=1;" vertex="1" parent="WIyWlLk6GJQsqaUBKTNV-1">
          <mxGeometry x="190" y="1180" width="120" height="60" as="geometry" />
        </mxCell>
        <mxCell id="qDLXqYuhVgCByGNDHQGn-43" value="end" style="rounded=1;whiteSpace=wrap;html=1;" vertex="1" parent="WIyWlLk6GJQsqaUBKTNV-1">
          <mxGeometry x="190" y="1300" width="120" height="60" as="geometry" />
        </mxCell>
      </root>
    </mxGraphModel>
  </diagram>
</mxfile>
